<svg width="288" height="80" viewBox="0 0 288 80" fill="none" xmlns="http://www.w3.org/2000/svg">
<path d="M94.7051 41.3294C94.609 38.7439 94.5088 35.6169 94.5088 32.49H94.4419C93.7234 35.2342 92.8043 38.2961 91.9521 40.8164L89.2659 49.2079H85.3683L83.0122 40.91C82.2936 38.3571 81.5709 35.2953 81.0153 32.4859H80.9484C80.8524 35.3889 80.7187 38.7073 80.5892 41.3905L80.1631 49.5581H75.5469L76.9547 28.0519H83.6012L85.761 35.2301C86.4795 37.7179 87.1354 40.4011 87.6283 42.9214H87.7578C88.3469 40.4336 89.0988 37.5917 89.855 35.1976L92.1777 28.0519H98.7239L99.902 49.5581H95.056L94.6968 41.3253L94.7051 41.3294Z" fill="#0088B1"/>
<path d="M116.867 40.4703H108.746V45.5761H117.815V49.5662H103.77V28.056H117.356V32.0462H108.746V36.5127H116.867V40.4703Z" fill="#0088B1"/>
<path d="M121.224 28.3736C123.058 28.0845 125.447 27.8931 127.937 27.8931C132.161 27.8931 134.91 28.6586 137.007 30.1895C139.3 31.8507 140.737 34.4973 140.737 38.296C140.737 42.4124 139.2 45.2503 137.103 47.0052C134.78 48.8863 131.208 49.782 126.889 49.782C124.303 49.782 122.435 49.6232 121.224 49.4644V28.3736ZM126.199 45.8936C126.625 45.9914 127.344 45.9914 127.933 45.9914C132.482 46.0239 135.465 43.5973 135.465 38.4589C135.465 33.9924 132.779 31.6308 128.459 31.6308C127.377 31.6308 126.625 31.7245 126.199 31.8222V45.8936Z" fill="#0088B1"/>
<path d="M149.017 28.056V49.5622H144.042V28.056H149.017Z" fill="#0088B1"/>
<path d="M158.546 49.5622L151.474 28.056H156.942L159.628 37.1519C160.38 39.7374 161.069 42.16 161.592 44.8432H161.692C162.248 42.2577 162.937 39.7048 163.689 37.2497L166.504 28.0601H171.81L164.378 49.5662H158.55L158.546 49.5622Z" fill="#0088B1"/>
<path d="M187.292 40.4703H179.171V45.5761H188.24V49.5662H174.195V28.056H187.781V32.0462H179.171V36.5127H187.292V40.4703Z" fill="#0088B1"/>
<path d="M191.645 28.3451C193.249 28.0886 195.605 27.8972 198.292 27.8972C201.567 27.8972 203.856 28.3776 205.427 29.5869C206.768 30.6089 207.49 32.1398 207.49 34.1186C207.49 36.8303 205.494 38.7154 203.593 39.3832V39.4809C205.13 40.0876 205.982 41.4923 206.538 43.471C207.227 45.9262 207.879 48.7356 208.305 49.5662H203.196C202.87 48.927 202.31 47.2047 201.692 44.5582C201.07 41.8465 200.121 41.1421 198.058 41.1136H196.583V49.5703H191.641V28.3451H191.645ZM196.591 37.5957H198.555C201.045 37.5957 202.515 36.3824 202.515 34.5013C202.515 32.6202 201.141 31.5331 198.847 31.5331C197.636 31.5331 196.946 31.5983 196.587 31.6919V37.5957H196.591Z" fill="#0088B1"/>
<path d="M211.225 44.5541C212.533 45.2259 214.63 45.8936 216.756 45.8936C219.05 45.8936 220.261 44.9694 220.261 43.5647C220.261 42.16 219.213 41.4597 216.56 40.5639C212.892 39.2895 210.469 37.3107 210.469 34.1837C210.469 30.5152 213.644 27.7384 218.816 27.7384C221.335 27.7384 223.135 28.2189 224.447 28.8215L223.332 32.7139C222.479 32.2986 220.875 31.6919 218.749 31.6919C216.623 31.6919 215.541 32.6813 215.541 33.7644C215.541 35.1365 216.752 35.7432 219.635 36.7977C223.532 38.2024 225.333 40.1812 225.333 43.2105C225.333 46.8179 222.517 49.8797 216.46 49.8797C213.936 49.8797 211.451 49.2079 210.206 48.5402L211.221 44.55L211.225 44.5541Z" fill="#0088B1"/>
<path d="M233.88 44.0411L232.309 49.5622H227.171L233.884 28.056H240.43L247.307 49.5622H241.905L240.201 44.0411H233.884H233.88ZM239.478 40.4051L238.104 35.8409C237.711 34.5665 237.318 32.9704 236.992 31.6919H236.925C236.6 32.9663 236.27 34.595 235.91 35.8409L234.603 40.4051H239.482H239.478Z" fill="#0088B1"/>
<path d="M250.248 28.056H255.223V45.4783H263.996V49.5622H250.243V28.056H250.248Z" fill="#0088B1"/>
<path d="M101.377 60.9219H99.7517L101.13 54.5173H98.8159L99.0916 53.2307H105.308L105.032 54.5173H102.751L101.377 60.9219Z" fill="#0088B1"/>
<path d="M105.575 55.352H107.016L106.787 56.4309C107.326 55.6248 107.906 55.2176 108.537 55.2176C108.758 55.2176 108.997 55.2705 109.251 55.3805L108.658 56.6142C108.52 56.5653 108.37 56.5409 108.211 56.5409C107.944 56.5409 107.676 56.6386 107.401 56.834C107.125 57.0295 106.912 57.29 106.757 57.6198C106.603 57.9456 106.452 58.4667 106.302 59.1752L105.926 60.9219H104.38L105.575 55.352Z" fill="#0088B1"/>
<path d="M109.941 55.352H111.486L110.78 58.65C110.692 59.0449 110.651 59.2933 110.651 59.391C110.651 59.5538 110.713 59.6882 110.835 59.8063C110.956 59.9244 111.114 59.9814 111.302 59.9814C111.44 59.9814 111.574 59.9569 111.708 59.904C111.841 59.8511 111.975 59.7778 112.117 59.6719C112.255 59.5701 112.384 59.4521 112.493 59.3177C112.606 59.1833 112.71 59.0083 112.806 58.7925C112.873 58.6337 112.948 58.369 113.028 58.0066L113.6 55.352H115.146L113.951 60.9219H112.51L112.673 60.1687C112.042 60.759 111.353 61.0563 110.613 61.0563C110.141 61.0563 109.773 60.926 109.506 60.6613C109.239 60.4007 109.101 60.0465 109.101 59.6068C109.101 59.4154 109.163 59.0327 109.285 58.4586L109.953 55.352H109.941Z" fill="#0088B1"/>
<path d="M115.288 59.3625L116.783 59.1304C116.917 59.4398 117.08 59.6556 117.281 59.7819C117.477 59.9081 117.748 59.9732 118.087 59.9732C118.425 59.9732 118.722 59.8959 118.931 59.7411C119.077 59.6353 119.152 59.5091 119.152 59.3584C119.152 59.2566 119.115 59.167 119.039 59.0856C118.96 59.0083 118.747 58.9146 118.4 58.8006C117.469 58.4993 116.888 58.2632 116.666 58.0881C116.32 57.8153 116.144 57.457 116.144 57.0172C116.144 56.5775 116.311 56.1989 116.65 55.8772C117.118 55.4334 117.819 55.2095 118.743 55.2095C119.478 55.2095 120.034 55.3397 120.41 55.6044C120.786 55.865 121.024 56.2233 121.124 56.6712L119.695 56.9114C119.62 56.7078 119.499 56.5572 119.328 56.4554C119.098 56.321 118.822 56.2518 118.5 56.2518C118.179 56.2518 117.945 56.3047 117.803 56.4106C117.661 56.5164 117.59 56.6345 117.59 56.7729C117.59 56.9114 117.661 57.0295 117.807 57.119C117.895 57.176 118.187 57.2738 118.672 57.4122C119.424 57.6239 119.929 57.8356 120.184 58.0433C120.543 58.3324 120.723 58.6825 120.723 59.0938C120.723 59.6231 120.497 60.0791 120.038 60.47C119.578 60.8608 118.939 61.0522 118.112 61.0522C117.285 61.0522 116.65 60.9056 116.199 60.6084C115.747 60.3112 115.442 59.8959 115.28 59.3625H115.288Z" fill="#0088B1"/>
<path d="M122.006 56.4676L122.244 55.352H122.996L123.184 54.4603L124.955 53.422L124.541 55.352H125.481L125.243 56.4676H124.295L123.794 58.8006C123.706 59.224 123.66 59.4643 123.66 59.5253C123.66 59.6394 123.698 59.7289 123.773 59.7941C123.848 59.8592 123.986 59.8918 124.182 59.8918C124.249 59.8918 124.42 59.8796 124.692 59.8551L124.45 60.9708C124.182 61.0237 123.911 61.0481 123.631 61.0481C123.083 61.0481 122.691 60.9463 122.44 60.7428C122.189 60.5392 122.068 60.2542 122.068 59.8918C122.068 59.7208 122.135 59.3258 122.269 58.707L122.749 56.4676H122.001H122.006Z" fill="#0088B1"/>
<path d="M131.986 57.1231C131.986 57.5547 131.831 57.9211 131.522 58.2224C131.213 58.5237 130.837 58.6744 130.398 58.6744C129.959 58.6744 129.579 58.5237 129.27 58.2184C128.961 57.913 128.806 57.5506 128.806 57.1231C128.806 56.6956 128.961 56.3332 129.27 56.0278C129.579 55.7265 129.955 55.5759 130.398 55.5759C130.841 55.5759 131.208 55.7265 131.522 56.0278C131.831 56.3291 131.986 56.6956 131.986 57.1231Z" fill="#0088B1"/>
<path d="M138.72 60.9219H137.095L138.474 54.5173H136.159L136.435 53.2307H142.651L142.375 54.5173H140.094L138.72 60.9219Z" fill="#0088B1"/>
<path d="M142.918 55.352H144.359L144.13 56.4309C144.669 55.6248 145.249 55.2176 145.88 55.2176C146.101 55.2176 146.34 55.2705 146.594 55.3805L146.001 56.6142C145.863 56.5653 145.713 56.5409 145.554 56.5409C145.287 56.5409 145.019 56.6386 144.744 56.834C144.468 57.0295 144.255 57.29 144.1 57.6198C143.946 57.9456 143.795 58.4667 143.645 59.1752L143.269 60.9219H141.723L142.918 55.352Z" fill="#0088B1"/>
<path d="M148.278 56.9317L146.77 56.8055C146.941 56.3088 147.242 55.922 147.672 55.641C148.103 55.3601 148.671 55.2217 149.377 55.2217C150.083 55.2217 150.655 55.3642 151.006 55.6533C151.357 55.9423 151.532 56.2925 151.532 56.7119C151.532 56.8788 151.516 57.058 151.486 57.2453C151.457 57.4325 151.348 57.9293 151.165 58.7355C151.014 59.3991 150.939 59.8633 150.939 60.132C150.939 60.3682 150.981 60.6328 151.069 60.926H149.569C149.506 60.7224 149.469 60.5147 149.456 60.2949C149.23 60.5392 148.971 60.7265 148.675 60.8568C148.382 60.987 148.086 61.0522 147.785 61.0522C147.313 61.0522 146.92 60.9015 146.611 60.6002C146.302 60.2989 146.147 59.9081 146.147 59.4317C146.147 58.8983 146.319 58.4749 146.657 58.1573C146.995 57.8397 147.601 57.6483 148.474 57.5791C149.21 57.518 149.703 57.4488 149.949 57.3633C150.012 57.1516 150.045 56.9847 150.045 56.8584C150.045 56.6997 149.978 56.5612 149.845 56.4554C149.711 56.3454 149.515 56.2925 149.251 56.2925C148.976 56.2925 148.758 56.3495 148.595 56.4594C148.437 56.5694 148.328 56.7282 148.27 56.9277L148.278 56.9317ZM149.749 58.3242C149.657 58.3487 149.531 58.3731 149.377 58.3934C148.6 58.483 148.094 58.6174 147.86 58.7925C147.693 58.9187 147.605 59.0897 147.605 59.3014C147.605 59.4765 147.668 59.6231 147.798 59.7452C147.927 59.8674 148.098 59.9244 148.307 59.9244C148.541 59.9244 148.758 59.8674 148.967 59.7574C149.176 59.6475 149.327 59.505 149.431 59.334C149.535 59.1589 149.623 58.8902 149.703 58.5237L149.744 58.3242H149.749Z" fill="#0088B1"/>
<path d="M153.446 55.352H154.908L154.757 56.0767C155.125 55.7673 155.463 55.5515 155.781 55.4171C156.098 55.2868 156.433 55.2217 156.783 55.2217C157.251 55.2217 157.623 55.352 157.895 55.6166C158.166 55.8772 158.3 56.2274 158.3 56.6589C158.3 56.8544 158.241 57.2249 158.12 57.7705L157.448 60.9219H155.902L156.579 57.7583C156.679 57.286 156.729 57.005 156.729 56.9155C156.729 56.7241 156.671 56.5734 156.554 56.4635C156.437 56.3536 156.274 56.2966 156.065 56.2966C155.839 56.2966 155.589 56.3902 155.313 56.5734C155.037 56.7607 154.82 57.005 154.661 57.3063C154.544 57.5221 154.419 57.9659 154.273 58.6337L153.784 60.9219H152.238L153.433 55.352H153.446Z" fill="#0088B1"/>
<path d="M158.764 59.3625L160.259 59.1304C160.393 59.4398 160.556 59.6556 160.756 59.7819C160.953 59.9081 161.224 59.9732 161.563 59.9732C161.901 59.9732 162.198 59.8959 162.407 59.7411C162.553 59.6353 162.628 59.5091 162.628 59.3584C162.628 59.2566 162.59 59.167 162.515 59.0856C162.436 59.0083 162.223 58.9146 161.876 58.8006C160.944 58.4993 160.364 58.2632 160.142 58.0881C159.796 57.8153 159.62 57.457 159.62 57.0172C159.62 56.5775 159.787 56.1989 160.126 55.8772C160.593 55.4334 161.291 55.2095 162.219 55.2095C162.954 55.2095 163.509 55.3397 163.885 55.6044C164.261 55.865 164.499 56.2233 164.6 56.6712L163.175 56.9114C163.1 56.7078 162.979 56.5572 162.808 56.4554C162.578 56.321 162.302 56.2518 161.98 56.2518C161.659 56.2518 161.425 56.3047 161.283 56.4106C161.141 56.5164 161.07 56.6345 161.07 56.7729C161.07 56.9114 161.141 57.0295 161.283 57.119C161.371 57.176 161.663 57.2738 162.148 57.4122C162.899 57.6239 163.405 57.8356 163.66 58.0433C164.019 58.3324 164.199 58.6825 164.199 59.0938C164.199 59.6231 163.969 60.0791 163.514 60.47C163.058 60.8608 162.415 61.0522 161.588 61.0522C160.761 61.0522 160.126 60.9056 159.674 60.6084C159.223 60.3112 158.918 59.8959 158.755 59.3625H158.764Z" fill="#0088B1"/>
<path d="M166.237 55.352H167.699L167.574 55.922C167.887 55.6695 168.18 55.4904 168.451 55.3805C168.723 55.2705 169.015 55.2176 169.329 55.2176C169.926 55.2176 170.411 55.4171 170.774 55.8202C171.138 56.2233 171.321 56.8218 171.321 57.6198C171.321 58.6255 171.008 59.4724 170.381 60.1646C169.842 60.755 169.207 61.0522 168.472 61.0522C167.737 61.0522 167.144 60.755 166.755 60.1564L166.137 63.0473H164.591L166.237 55.352ZM167.169 58.5441C167.169 58.9798 167.277 59.3136 167.495 59.5538C167.712 59.7941 167.967 59.9121 168.263 59.9121C168.518 59.9121 168.765 59.8226 168.999 59.6434C169.237 59.4643 169.433 59.163 169.588 58.7477C169.742 58.3324 169.822 57.9415 169.822 57.5873C169.822 57.172 169.717 56.8503 169.517 56.6304C169.312 56.4106 169.053 56.2966 168.735 56.2966C168.443 56.2966 168.171 56.3984 167.929 56.6019C167.687 56.8055 167.499 57.1068 167.365 57.5058C167.232 57.9049 167.165 58.2509 167.165 58.5482L167.169 58.5441Z" fill="#0088B1"/>
<path d="M174.003 56.9317L172.495 56.8055C172.667 56.3088 172.967 55.922 173.398 55.641C173.828 55.3601 174.396 55.2217 175.102 55.2217C175.808 55.2217 176.38 55.3642 176.731 55.6533C177.082 55.9423 177.258 56.2925 177.258 56.7119C177.258 56.8788 177.241 57.058 177.212 57.2453C177.182 57.4325 177.074 57.9293 176.89 58.7355C176.74 59.3991 176.664 59.8633 176.664 60.132C176.664 60.3682 176.706 60.6328 176.794 60.926H175.294C175.232 60.7224 175.194 60.5147 175.181 60.2949C174.956 60.5392 174.697 60.7265 174.4 60.8568C174.108 60.987 173.811 61.0522 173.51 61.0522C173.038 61.0522 172.646 60.9015 172.337 60.6002C172.027 60.2989 171.873 59.9081 171.873 59.4317C171.873 58.8983 172.044 58.4749 172.382 58.1573C172.721 57.8397 173.327 57.6483 174.2 57.5791C174.935 57.518 175.428 57.4488 175.674 57.3633C175.737 57.1516 175.77 56.9847 175.77 56.8584C175.77 56.6997 175.704 56.5612 175.57 56.4554C175.436 56.3454 175.24 56.2925 174.977 56.2925C174.701 56.2925 174.484 56.3495 174.321 56.4594C174.162 56.5694 174.053 56.7282 173.995 56.9277L174.003 56.9317ZM175.474 58.3242C175.382 58.3487 175.257 58.3731 175.102 58.3934C174.325 58.483 173.82 58.6174 173.586 58.7925C173.418 58.9187 173.331 59.0897 173.331 59.3014C173.331 59.4765 173.393 59.6231 173.523 59.7452C173.652 59.8674 173.824 59.9244 174.033 59.9244C174.267 59.9244 174.484 59.8674 174.693 59.7574C174.902 59.6475 175.052 59.505 175.156 59.334C175.261 59.1589 175.349 58.8902 175.428 58.5237L175.47 58.3242H175.474Z" fill="#0088B1"/>
<path d="M179.062 55.352H180.504L180.274 56.4309C180.813 55.6248 181.394 55.2176 182.024 55.2176C182.246 55.2176 182.484 55.2705 182.739 55.3805L182.145 56.6142C182.008 56.5653 181.857 56.5409 181.698 56.5409C181.431 56.5409 181.164 56.6386 180.888 56.834C180.612 57.0295 180.399 57.29 180.245 57.6198C180.09 57.9456 179.94 58.4667 179.789 59.1752L179.413 60.9219H177.868L179.062 55.352Z" fill="#0088B1"/>
<path d="M187.81 58.6052H183.933C183.933 58.6662 183.929 58.711 183.929 58.7395C183.929 59.11 184.038 59.4113 184.255 59.6353C184.472 59.8633 184.735 59.9773 185.049 59.9773C185.563 59.9773 185.964 59.7167 186.248 59.1996L187.63 59.4236C187.363 59.9651 187.004 60.3722 186.553 60.645C186.101 60.9178 185.596 61.0522 185.036 61.0522C184.267 61.0522 183.645 60.816 183.165 60.3397C182.684 59.8674 182.442 59.2403 182.442 58.4586C182.442 57.6768 182.659 57.0172 183.094 56.4228C183.687 55.6166 184.531 55.2176 185.629 55.2176C186.327 55.2176 186.887 55.4293 187.296 55.8487C187.71 56.2721 187.914 56.8585 187.914 57.6198C187.914 57.9822 187.877 58.312 187.806 58.6011L187.81 58.6052ZM186.507 57.685C186.507 57.6198 186.511 57.5669 186.511 57.5343C186.511 57.1231 186.415 56.8137 186.227 56.606C186.039 56.3984 185.78 56.2966 185.462 56.2966C185.145 56.2966 184.857 56.4146 184.606 56.6467C184.351 56.8829 184.18 57.229 184.092 57.685H186.507Z" fill="#0088B1"/>
<path d="M189.59 55.352H191.052L190.901 56.0767C191.269 55.7673 191.607 55.5515 191.925 55.4171C192.242 55.2868 192.577 55.2217 192.927 55.2217C193.395 55.2217 193.767 55.352 194.039 55.6166C194.31 55.8772 194.444 56.2274 194.444 56.6589C194.444 56.8544 194.385 57.2249 194.264 57.7705L193.592 60.9219H192.046L192.723 57.7583C192.823 57.286 192.873 57.005 192.873 56.9155C192.873 56.7241 192.815 56.5734 192.698 56.4635C192.581 56.3536 192.418 56.2966 192.209 56.2966C191.983 56.2966 191.733 56.3902 191.457 56.5734C191.181 56.7607 190.964 57.005 190.805 57.3063C190.688 57.5221 190.563 57.9659 190.417 58.6337L189.928 60.9219H188.382L189.577 55.352H189.59Z" fill="#0088B1"/>
<path d="M198.981 58.825L200.481 59.0612C200.234 59.7126 199.867 60.2053 199.382 60.5473C198.897 60.8853 198.338 61.0563 197.699 61.0563C196.972 61.0563 196.391 60.8445 195.965 60.4211C195.539 59.9976 195.326 59.4154 195.326 58.6744C195.326 58.0677 195.455 57.4977 195.714 56.9602C195.973 56.4228 196.362 55.9993 196.884 55.6899C197.406 55.3805 197.974 55.2257 198.597 55.2257C199.269 55.2257 199.808 55.3967 200.213 55.7388C200.619 56.0808 200.84 56.5327 200.89 57.0905L199.42 57.2412C199.382 56.9317 199.286 56.6997 199.127 56.5531C198.969 56.4065 198.76 56.3332 198.501 56.3332C198.204 56.3332 197.924 56.4431 197.665 56.6589C197.406 56.8747 197.21 57.2005 197.072 57.6321C196.934 58.0636 196.863 58.4667 196.863 58.8454C196.863 59.1752 196.947 59.4276 197.11 59.6068C197.272 59.7859 197.481 59.8755 197.728 59.8755C197.974 59.8755 198.212 59.79 198.442 59.6149C198.672 59.4398 198.852 59.1793 198.981 58.8291V58.825Z" fill="#0088B1"/>
<path d="M201.717 55.352H203.254L203.643 58.1288C203.739 58.8413 203.793 59.3421 203.806 59.6271C204.006 59.0571 204.282 58.4545 204.633 57.8234L205.999 55.352H207.637L204.106 61.4675C203.814 61.9764 203.588 62.3307 203.421 62.5343C203.254 62.7378 203.054 62.8966 202.82 63.0106C202.586 63.1246 202.302 63.1857 201.972 63.1857C201.642 63.1857 201.278 63.1287 200.869 63.0188L201.003 61.895C201.191 61.9479 201.37 61.9724 201.546 61.9724C202.018 61.9724 202.41 61.6222 202.711 60.9219L201.717 55.352Z" fill="#0088B1"/>
<path d="M214.062 57.1231C214.062 57.5547 213.907 57.9211 213.594 58.2224C213.285 58.5237 212.909 58.6744 212.47 58.6744C212.032 58.6744 211.652 58.5237 211.342 58.2184C211.033 57.913 210.879 57.5506 210.879 57.1231C210.879 56.6956 211.033 56.3332 211.342 56.0278C211.652 55.7265 212.027 55.5759 212.47 55.5759C212.913 55.5759 213.281 55.7265 213.594 56.0278C213.903 56.3291 214.062 56.6956 214.062 57.1231Z" fill="#0088B1"/>
<path d="M223.077 58.1532L224.715 58.3934C224.397 59.2566 223.917 59.9162 223.278 60.3722C222.638 60.8283 221.891 61.0563 221.034 61.0563C220.069 61.0563 219.313 60.7713 218.77 60.2053C218.227 59.6394 217.955 58.8169 217.955 57.742C217.955 56.8666 218.139 56.0686 218.503 55.3438C218.866 54.6191 219.372 54.0613 220.019 53.6785C220.667 53.2958 221.368 53.1004 222.129 53.1004C222.981 53.1004 223.674 53.3243 224.201 53.7681C224.727 54.216 225.036 54.8227 225.132 55.5922L223.578 55.7388C223.491 55.2909 223.328 54.9652 223.081 54.7657C222.835 54.5661 222.509 54.4644 222.099 54.4644C221.652 54.4644 221.231 54.5987 220.842 54.8634C220.453 55.128 220.14 55.5433 219.906 56.1093C219.672 56.6752 219.555 57.2371 219.555 57.8031C219.555 58.4179 219.706 58.8942 220.011 59.2281C220.316 59.562 220.692 59.733 221.143 59.733C221.561 59.733 221.949 59.5986 222.296 59.334C222.647 59.0693 222.906 58.6744 223.081 58.1532H223.077Z" fill="#0088B1"/>
<path d="M227.493 56.9317L225.985 56.8055C226.156 56.3088 226.457 55.922 226.887 55.641C227.317 55.3601 227.886 55.2217 228.592 55.2217C229.298 55.2217 229.87 55.3642 230.221 55.6533C230.572 55.9423 230.747 56.2925 230.747 56.7119C230.747 56.8788 230.73 57.058 230.701 57.2453C230.672 57.4325 230.563 57.9293 230.38 58.7355C230.229 59.3991 230.154 59.8633 230.154 60.132C230.154 60.3682 230.196 60.6328 230.283 60.926H228.784C228.721 60.7224 228.683 60.5147 228.671 60.2949C228.445 60.5392 228.186 60.7265 227.89 60.8568C227.597 60.987 227.301 61.0522 227 61.0522C226.528 61.0522 226.135 60.9015 225.826 60.6002C225.517 60.2989 225.362 59.9081 225.362 59.4317C225.362 58.8983 225.534 58.4749 225.872 58.1573C226.21 57.8397 226.816 57.6483 227.689 57.5791C228.424 57.518 228.917 57.4488 229.164 57.3633C229.227 57.1516 229.26 56.9847 229.26 56.8584C229.26 56.6997 229.193 56.5612 229.059 56.4554C228.926 56.3454 228.729 56.2925 228.466 56.2925C228.191 56.2925 227.973 56.3495 227.81 56.4594C227.652 56.5694 227.543 56.7282 227.484 56.9277L227.493 56.9317ZM228.959 58.3242C228.867 58.3487 228.742 58.3731 228.587 58.3934C227.81 58.483 227.305 58.6174 227.071 58.7925C226.904 58.9187 226.816 59.0897 226.816 59.3014C226.816 59.4765 226.879 59.6231 227.008 59.7452C227.138 59.8674 227.309 59.9244 227.518 59.9244C227.752 59.9244 227.969 59.8674 228.178 59.7574C228.387 59.6475 228.537 59.505 228.642 59.334C228.746 59.1589 228.834 58.8902 228.913 58.5237L228.955 58.3242H228.959Z" fill="#0088B1"/>
<path d="M232.552 55.352H233.993L233.763 56.4309C234.302 55.6248 234.883 55.2176 235.514 55.2176C235.735 55.2176 235.973 55.2705 236.228 55.3805L235.635 56.6142C235.497 56.5653 235.346 56.5409 235.188 56.5409C234.92 56.5409 234.653 56.6386 234.377 56.834C234.102 57.0295 233.889 57.29 233.734 57.6198C233.579 57.9456 233.429 58.4667 233.279 59.1752L232.903 60.9219H231.357L232.552 55.352Z" fill="#0088B1"/>
<path d="M241.295 58.6052H237.419C237.419 58.6662 237.414 58.711 237.414 58.7395C237.414 59.11 237.523 59.4113 237.74 59.6353C237.958 59.8633 238.221 59.9773 238.534 59.9773C239.048 59.9773 239.449 59.7167 239.733 59.1996L241.116 59.4236C240.848 59.9651 240.489 60.3722 240.038 60.645C239.587 60.9178 239.081 61.0522 238.522 61.0522C237.753 61.0522 237.13 60.816 236.65 60.3397C236.17 59.8674 235.927 59.2403 235.927 58.4586C235.927 57.6768 236.144 57.0172 236.579 56.4228C237.172 55.6166 238.016 55.2176 239.115 55.2176C239.812 55.2176 240.372 55.4293 240.782 55.8487C241.195 56.2721 241.4 56.8585 241.4 57.6198C241.4 57.9822 241.362 58.312 241.291 58.6011L241.295 58.6052ZM239.996 57.685C239.996 57.6198 240 57.5669 240 57.5343C240 57.1231 239.904 56.8137 239.716 56.606C239.528 56.3984 239.269 56.2966 238.952 56.2966C238.634 56.2966 238.346 56.4146 238.095 56.6467C237.841 56.8829 237.669 57.229 237.582 57.685H239.996Z" fill="#0088B1"/>
<path d="M47.2355 32.9908C40.6058 28.2474 32.6433 25.2425 24 24.6236L35.8517 44.7047C38.8971 40.1405 42.7697 36.187 47.2397 32.9908H47.2355Z" fill="url(#paint0_linear_8487_16629)"/>
<path d="M58.6236 44.7047L70.4753 24.6236C61.8319 25.2425 53.8695 28.2474 47.2397 32.9908C51.7097 36.187 55.5823 40.1446 58.6277 44.7047H58.6236Z" fill="url(#paint1_linear_8487_16629)"/>
<path d="M35.8518 44.7047L47.2398 64L58.6278 44.7047C55.5824 40.1405 51.7098 36.187 47.2398 32.9908C42.7698 36.187 38.8972 40.1446 35.8518 44.7047Z" fill="url(#paint2_linear_8487_16629)"/>
<path d="M47.2357 27.6855C49.6905 27.6855 51.6806 25.0696 51.6806 21.8427C51.6806 18.6159 49.6905 16 47.2357 16C44.7808 16 42.7908 18.6159 42.7908 21.8427C42.7908 25.0696 44.7808 27.6855 47.2357 27.6855Z" fill="url(#paint3_linear_8487_16629)"/>
<defs>
<linearGradient id="paint0_linear_8487_16629" x1="24" y1="34.6642" x2="47.2355" y2="34.6642" gradientUnits="userSpaceOnUse">
<stop stop-color="#31B0CD"/>
<stop offset="1" stop-color="#21B685"/>
</linearGradient>
<linearGradient id="paint1_linear_8487_16629" x1="47.2356" y1="34.6642" x2="70.4711" y2="34.6642" gradientUnits="userSpaceOnUse">
<stop stop-color="#31B0CD"/>
<stop offset="1" stop-color="#81D3EB"/>
</linearGradient>
<linearGradient id="paint2_linear_8487_16629" x1="47.2356" y1="34.9248" x2="47.2356" y2="64.6148" gradientUnits="userSpaceOnUse">
<stop stop-color="#0077C0"/>
<stop offset="1" stop-color="#191057"/>
</linearGradient>
<linearGradient id="paint3_linear_8487_16629" x1="42.7908" y1="21.8427" x2="51.6806" y2="21.8427" gradientUnits="userSpaceOnUse">
<stop stop-color="#31B0CD"/>
<stop offset="1" stop-color="#81D3EB"/>
</linearGradient>
</defs>
</svg>
